<?xml version="1.0" encoding="UTF-8" standalone="no"?>
<!-- Created with Inkscape (http://www.inkscape.org/) -->

<svg
   width="55.147675mm"
   height="8.8031588mm"
   viewBox="0 0 55.147675 8.8031588"
   version="1.1"
   id="svg1"
   xml:space="preserve"
   xmlns="http://www.w3.org/2000/svg"
   xmlns:svg="http://www.w3.org/2000/svg"><defs
     id="defs1"><linearGradient
       id="swatch1"><stop
         style="stop-color:#000000;stop-opacity:1;"
         offset="0"
         id="stop1" /></linearGradient></defs><g
     id="layer1"
     transform="matrix(0.04192557,0,0,0.04192557,23.590336,8.4196416)"><g
       id="g4"
       transform="translate(-571.61826,-235.8425)"><g
         id="g2"
         transform="translate(9.4259183,-6.2839455)"><path
           d="m 158.35205,132.62475 a 29.8695,29.8695 0 0 0 -8.71719,22.47565 37.662456,37.662456 0 0 1 -38.73372,36.21309 29.995531,29.995531 0 1 0 31.31886,31.29786 37.515419,37.515419 0 0 1 37.07431,-38.77574 h 1.65941 A 29.995531,29.995531 0 1 0 158.35205,132.62475 Z M 75.780318,50.053018 a 29.8695,29.8695 0 0 0 -8.71719,22.47564 37.620446,37.620446 0 0 1 -38.81775,36.192092 30.016537,30.016537 0 1 0 31.27686,31.36087 37.536425,37.536425 0 0 1 37.17933,-38.81774 h 1.5964 A 29.995531,29.995531 0 1 0 75.780318,50.053018 Z"
           fill="#1686cb"
           id="path4"
           style="overflow:visible;color-interpolation-filters:sRGB;stroke-width:2.10053" /><path
           d="m 20.9,20.91 a 9.91,9.91 0 1 1 0,-14 9.9,9.9 0 0 1 0,14 z m 72.31,72.3 a 9.91,9.91 0 1 1 0,-14 9.9,9.9 0 0 1 0,14 z"
           fill="#ef5b24"
           id="path5"
           style="overflow:visible;color-interpolation-filters:sRGB;image-rendering:auto"
           transform="matrix(2.1005274,0,0,2.1005274,0.05269871,43.463686)" /><path
           d="m 193.53228,59.343674 a 29.974526,29.974526 0 0 0 -51.16885,22.475643 37.620446,37.620446 0 0 1 -38.81775,36.213093 30.289605,30.289605 0 0 0 -28.924259,31.50791 37.578435,37.578435 0 0 1 -38.859756,36.17108 30.016537,30.016537 0 1 0 31.297858,31.36087 37.536425,37.536425 0 0 1 37.179337,-38.81774 h 1.68042 a 29.890505,29.890505 0 0 0 14.70369,-4.62116 29.260347,29.260347 0 0 0 5.46137,-4.39011 29.890505,29.890505 0 0 0 8.71719,-19.84998 37.536425,37.536425 0 0 1 37.20034,-38.71272 h 1.05027 a 5.8814767,5.8814767 0 0 0 0.60915,0 29.974526,29.974526 0 0 0 19.87099,-51.336886 z"
           fill="#ef5b24"
           id="path3"
           style="overflow:visible;color-interpolation-filters:sRGB;stroke-width:2.10053" /></g><g
         id="g3"><path
           d="m 41.753931,17.42066 h -4.894792 q -0.0079,0 -0.0079,-0.0079 v 0 -5.730875 q 0,-0.0079 0.0079,-0.0079 v 0 h 1.148292 q 0,0 0,0.0079 v 0 4.574646 h 3.7465 q 0,0 0,0.0079 v 0 1.148292 z m 3.196167,-0.0079 0.359833,-1.140354 h -2.394479 q -0.0079,0 -0.0079,-0.0079 v 0 -1.145645 q 0,0 0.0079,0 v 0 h 2.772833 l 0.367771,-1.140355 h -3.140604 q -0.0079,0 -0.0079,-0.0079 v 0 -1.140354 q 0,-0.0079 0.0079,-0.0079 v 0 h 3.508375 l 0.370416,-1.148291 h 0.0079 1.195917 0.0079 l 1.844146,5.738812 v 0 l -0.0079,0.0079 H 48.64629 l -0.0079,-0.0079 -0.367771,-1.140354 h -1.738312 l -0.370417,1.140354 -0.0079,0.0079 h -1.203854 z m 1.949979,-2.293937 h 1.000125 l -0.500063,-1.550459 z m 5.262562,2.301874 h -1.148292 q -0.0079,0 -0.0079,-0.0079 v 0 -5.730875 q 0,-0.0079 0.0079,-0.0079 v 0 h 2.656417 q 0.460375,0 0.870479,0.17727 0.407459,0.177271 0.711729,0.478896 0.304271,0.304271 0.478896,0.714375 0.177271,0.410104 0.177271,0.875771 v 0 q 0,0.566208 -0.261937,1.058333 -0.261938,0.492125 -0.738188,0.812271 v 0 l 1.000125,1.621896 v 0 0.0079 h -1.352021 v -0.0079 l -0.780521,-1.254125 q -0.05556,0.0079 -0.105833,0.0079 v 0 h -1.508125 v 1.246187 q 0,0.0079 0,0.0079 z m 2.132542,-2.614083 v 0 q 0.211666,-0.156104 0.336021,-0.388937 0.121708,-0.235479 0.121708,-0.497417 v 0 q 0,-0.230187 -0.08467,-0.425979 -0.08731,-0.195792 -0.235479,-0.343958 -0.145521,-0.148167 -0.343958,-0.232834 -0.195792,-0.08731 -0.418042,-0.08731 v 0 h -1.508125 v 2.172229 h 1.508125 q 0.343958,0 0.624417,-0.195792 z m 3.918483,2.614083 h -1.14036 q -0.008,0 -0.008,-0.0079 v 0 -5.730875 q 0,-0.0079 0.008,-0.0079 v 0 h 1.34409 0.008 l 2.38654,3.862916 v -3.854979 q 0,-0.0079 0.008,-0.0079 v 0 h 1.14565 q 0,0 0,0.0079 v 0 5.730875 q 0,0.0079 0,0.0079 v 0 h -1.35202 v -0.0079 l -2.39184,-3.860271 v 3.860271 q 0,0.0079 -0.008,0.0079 z m 9.7446,-1.730374 v 0 q 0,0.362479 -0.13758,0.672041 -0.14023,0.312209 -0.37307,0.550334 -0.23548,0.238125 -0.54504,0.373062 -0.31221,0.134937 -0.67469,0.134937 v 0 h -3.1697 q -0.0106,0 -0.0106,-0.0079 v 0 -1.722437 q 0,-0.351896 0.13759,-0.66675 0.13493,-0.314855 0.36777,-0.550334 0.23283,-0.232833 0.55033,-0.367771 0.31485,-0.134937 0.66675,-0.134937 v 0 h 1.45785 q 0.23813,0 0.40217,-0.169333 0.16404,-0.166688 0.16404,-0.404813 v 0 q 0,-0.230187 -0.16404,-0.396875 -0.16404,-0.169333 -0.40217,-0.169333 v 0 h -1.45785 q -0.23019,0 -0.39687,0.169333 -0.16934,0.166688 -0.16934,0.396875 v 0 q 0,0.0079 0,0.0079 v 0 h -1.14564 q -0.0106,0 -0.0106,-0.0079 v 0 q 0,-0.351896 0.13759,-0.669396 0.13493,-0.314854 0.36777,-0.547687 0.23283,-0.232834 0.55033,-0.370417 0.31485,-0.134937 0.66675,-0.134937 v 0 h 1.45785 q 0.36248,0 0.67469,0.134937 0.30956,0.137583 0.54504,0.370417 0.23284,0.232833 0.37307,0.547687 0.13758,0.3175 0.13758,0.669396 v 0 q 0,0.359833 -0.13758,0.677333 -0.14023,0.314855 -0.37307,0.547688 -0.23548,0.232833 -0.54504,0.370417 -0.31221,0.134937 -0.67469,0.134937 v 0 h -1.45785 q -0.23019,0 -0.39687,0.164042 -0.16934,0.164041 -0.16934,0.399521 v 0 0.566208 h 2.02406 q 0.23813,0 0.40217,-0.164042 0.16404,-0.164041 0.16404,-0.402166 v 0 q 0,-0.0079 0.008,-0.0079 v 0 h 1.14829 q 0.008,0 0.008,0.0079 z m 5.94254,-1.770063 v 0 q 0,0.566208 -0.26458,1.060979 -0.26723,0.497417 -0.74348,0.809625 v 0 q -0.508,0.336021 -1.12183,0.367771 v 0 q -0.0503,0.0079 -0.10584,0.0079 v 0 h -1.51077 v 1.246187 q 0,0.0079 0,0.0079 v 0 h -1.14564 q -0.008,0 -0.008,-0.0079 v 0 -5.730875 q 0,-0.0079 0.008,-0.0079 v 0 h 2.65641 q 0.45773,0 0.86784,0.17727 0.4101,0.177271 0.71172,0.478896 0.30428,0.304271 0.48155,0.714375 0.17462,0.410104 0.17462,0.875772 z m -3.7465,-1.090083 v 2.172229 h 1.51077 q 0.34396,0 0.62177,-0.195792 v 0 q 0.21432,-0.156104 0.33602,-0.388937 0.12171,-0.235479 0.12171,-0.497417 v 0 q 0,-0.230187 -0.0847,-0.425979 -0.0873,-0.195792 -0.23284,-0.343958 -0.14816,-0.148167 -0.34396,-0.232834 -0.19843,-0.08731 -0.41804,-0.08731 v 0 z m 9.14929,-1.156229 v 0 0.0079 l -1.81239,3.926417 v 0 l -0.0556,0.132291 v 1.672167 q 0,0.0079 -0.0106,0.0079 v 0 h -1.14564 q 0,0 0,-0.0079 v 0 -1.672167 l -0.0661,-0.132291 -1.8124,-3.926417 v -0.0079 h 0.008 1.26471 v 0 l 1.18004,2.55852 1.18004,-2.55852 h 0.008 z"
           id="path7"
           style="color-interpolation-filters:sRGB;fill:#ffffff;fill-opacity:1;stroke-width:0.264583"
           transform="matrix(23.851793,0,0,23.851793,-567.21557,-208.79186)" /></g></g></g></svg>
